<svg fill="none" height="25" viewBox="0 0 243 25" width="243" xmlns="http://www.w3.org/2000/svg" xmlns:xlink="http://www.w3.org/1999/xlink"><filter id="a" color-interpolation-filters="sRGB" filterUnits="userSpaceOnUse" height="44.8665" width="37.6543" x="0" y="-10"><feFlood flood-opacity="0" result="BackgroundImageFix"/><feBlend in="SourceGraphic" in2="BackgroundImageFix" mode="normal" result="shape"/><feColorMatrix in="SourceAlpha" result="hardAlpha" type="matrix" values="0 0 0 0 0 0 0 0 0 0 0 0 0 0 0 0 0 0 127 0"/><feOffset dy="10"/><feGaussianBlur stdDeviation="5"/><feComposite in2="hardAlpha" k2="-1" k3="1" operator="arithmetic"/><feColorMatrix type="matrix" values="0 0 0 0 1 0 0 0 0 1 0 0 0 0 1 0 0 0 0.1 0"/><feBlend in2="shape" mode="normal" result="effect1_innerShadow_15_11996"/><feColorMatrix in="SourceAlpha" result="hardAlpha" type="matrix" values="0 0 0 0 0 0 0 0 0 0 0 0 0 0 0 0 0 0 127 0"/><feOffset dy="-10"/><feGaussianBlur stdDeviation="5"/><feComposite in2="hardAlpha" k2="-1" k3="1" operator="arithmetic"/><feColorMatrix type="matrix" values="0 0 0 0 0.2 0 0 0 0 0.2 0 0 0 0 0.2 0 0 0 0.1 0"/><feBlend in2="effect1_innerShadow_15_11996" mode="normal" result="effect2_innerShadow_15_11996"/></filter><g fill="#2e6b5c" filter="url(#a)"><path d="m23.1435 2.87184c1.6871.53943 2.921 2.26305 2.921 4.30596v12.0751l.6654 1.4468c.6939 1.5088 2.3603 2.1087 3.7221 1.3399l5.6901-3.2122c1.3618-.7687 1.9033-2.615 1.2094-4.1238l-5.9918-13.02885c-.6939-1.508767-2.3603-2.108665-3.7221-1.339911z"/><path d="m12.8664 19.5927v2.2078c0 1.6933 1.239 3.066 2.7673 3.066h6.3862c1.5284 0 2.7674-1.3727 2.7674-3.066v-14.62268c0-1.69332-1.239-3.06604-2.7674-3.06604h-4.0294c.6258 1.25762.6959 2.8256.0632 4.20151z"/><path d="m6.29406 1.67474c.69386-1.508766 2.36029-2.108663 3.72204-1.339909l5.6902 3.212199c1.3618.76875 1.9032 2.61505 1.2094 4.12381l-5.9919 13.02886c-.6938 1.5088-2.36027 2.1087-3.72205 1.3399l-5.69016-3.2122c-1.361784-.7687-1.903242-2.615-1.209377-4.1238z"/></g><g fill="#333"><path d="m77.0885 5.53766h-5.8729l-5.3086 10.20504-5.3296-10.20504h-5.8938v15.98114h4.598v-9.3376l5.0369 9.3376h3.1351l5.0369-9.3147v9.3147h4.598z"/><path d="m87.0753 21.7471c5.2251 0 8.5273-2.0091 8.5273-7.0089 0-4.99979-3.3022-7.00885-8.5273-7.00885-5.2041 0-8.5272 2.00906-8.5272 7.00885 0 4.9998 3.3231 7.0089 8.5272 7.0089zm0-3.904c-2.7588 0-4.2218-.7077-4.2218-3.1049 0-2.3971 1.463-3.1049 4.2218-3.1049 2.7797 0 4.2428.7078 4.2428 3.1049 0 2.3972-1.4631 3.1049-4.2428 3.1049z"/><path d="m107.903 7.95766-4.075 10.20514-4.0756-10.20514h-4.7234l5.747 13.56114h6.103l5.727-13.56114z"/><path d="m113.678 3.25464v3.51585h4.306v-3.51585zm0 4.70302v13.56114h4.306v-13.56114z"/><path d="m127.696 18.0029c-1.86 0-3.511-.5251-3.929-2.3515h12.602c0-6.04997-3.532-7.92205-8.464-7.92205-5.058 0-8.527 2.00906-8.527 7.00885 0 4.9998 3.532 7.0089 8.318 7.0089 4.87 0 7.754-1.6894 8.464-5.2053h-4.242c-.941 1.1187-2.069 1.4611-4.222 1.4611zm.209-6.849c1.776 0 3.302.3196 3.908 1.8949h-7.879c.585-1.5753 2.09-1.8949 3.971-1.8949z"/><path d="m137.287 16.7929c0 4.2921 4.306 4.9542 9.05 4.9542s7.963-.6621 7.963-4.6345c0-3.5844-3.198-3.8355-8.088-4.1551-3.7-.274-4.285-.3197-4.285-1.0274 0-.6621.857-.7762 3.825-.7762 2.759 0 3.845.1141 3.845 1.0502h4.285c0-3.81267-3.281-4.47475-7.921-4.47475-4.536 0-8.339.66208-8.339 4.36055 0 3.3561 2.591 3.8355 8.172 4.1323 3.678.2283 4.221.2283 4.221 1.073 0 .8219-.564 1.0274-3.887 1.0274-3.511 0-4.535-.4338-4.535-1.5297z"/><path d="m171.844 12.7063c.71-.8903 1.149-1.9634 1.149-3.03638 0-2.39717-1.024-4.13226-4.347-4.13226h-12.812v15.98114h13.376c3.324 0 4.766-2.0319 4.766-4.703 0-1.7808-.857-3.1963-2.132-4.1095zm-11.412-3.74412h6.396c.794 0 1.567.00001 1.567 1.25562 0 1.2557-.773 1.2557-1.567 1.2557h-6.396zm7.378 8.81242h-7.378v-2.5341h7.378c.794 0 1.568 0 1.568 1.2556 0 1.2785-.774 1.2785-1.568 1.2785z"/><path d="m183.491 21.7471c5.225 0 8.527-2.0091 8.527-7.0089 0-4.99979-3.302-7.00885-8.527-7.00885-5.204 0-8.527 2.00906-8.527 7.00885 0 4.9998 3.323 7.0089 8.527 7.0089zm0-3.904c-2.759 0-4.222-.7077-4.222-3.1049 0-2.3971 1.463-3.1049 4.222-3.1049 2.78 0 4.243.7078 4.243 3.1049 0 2.3972-1.463 3.1049-4.243 3.1049z"/><path d="m201.422 7.72935c-2.424 0-5.037.50227-7.545 1.39265l1.463 3.356c2.424-.6849 4.305-.8447 5.915-.8447 1.672 0 3.992.137 3.992 2.2374-1.401-.5251-3.031-.8447-4.975-.8447-3.762 0-7.419 1.0273-7.419 4.566 0 2.9908 2.341 4.1551 5.497 4.1551 2.529 0 4.828-.5479 6.897-1.8949v1.6666h4.284v-6.7806c-.042-5.1596-2.968-7.00885-8.109-7.00885zm3.825 9.47455c-1.568.7077-3.825 1.2785-5.622 1.2785-1.589 0-2.467-.1142-2.467-1.1872 0-1.1415 1.296-1.484 3.804-1.484 1.86 0 3.24.2283 4.285.5708z"/><path d="m220.939 7.72935c-2.153 0-4.117.70774-5.58 2.51135v-2.28304h-4.306v13.56114h4.306v-7.7166c1.797-1.8036 3.929-2.1689 5.831-2.1689.961 0 1.902.137 3.072.4566v-3.90394c-.836-.2283-1.86-.45661-3.323-.45661z"/><path d="m237.707 3.25464v6.66641c-1.317-1.48396-3.365-2.1917-5.664-2.1917-3.595 0-7.085 1.66661-7.085 7.00885 0 5.3195 3.49 7.0089 7.085 7.0089 2.299 0 4.347-.7077 5.664-2.2145v1.9862h4.305v-18.26416zm-4.222 14.58846c-2.717 0-4.243-.7762-4.243-3.1049s1.526-3.1049 4.243-3.1049c2.696 0 4.222.7762 4.222 3.1049s-1.526 3.1049-4.222 3.1049z"/></g></svg>