<svg width="16" height="20" viewBox="0 0 16 20" fill="none" xmlns="http://www.w3.org/2000/svg">
<path d="M14.5 16.5C14.5 17.2956 14.1839 18.0587 13.6213 18.6213C13.0587 19.1839 12.2956 19.5 11.5 19.5H4.5C3.70435 19.5 2.94129 19.1839 2.37868 18.6213C1.81607 18.0587 1.5 17.2956 1.5 16.5V4.5H0.5V1.5H5L6 0.5H10L11 1.5H15.5V4.5H14.5V16.5ZM2.5 4.5V16.5C2.5 17.0304 2.71071 17.5391 3.08579 17.9142C3.46086 18.2893 3.96957 18.5 4.5 18.5H11.5C12.0304 18.5 12.5391 18.2893 12.9142 17.9142C13.2893 17.5391 13.5 17.0304 13.5 16.5V4.5H2.5ZM14.5 3.5V2.5H10.5L9.5 1.5H6.5L5.5 2.5H1.5V3.5H14.5ZM4.5 6.5H5.5V16.5H4.5V6.5ZM10.5 6.5H11.5V16.5H10.5V6.5Z" fill="white"/>
</svg>
