<svg width="38" height="25" viewBox="0 0 38 25" fill="none" xmlns="http://www.w3.org/2000/svg">
<g filter="url(#filter0_ii_15_12014)">
<path d="M23.1435 2.87184C24.8306 3.41127 26.0645 5.13489 26.0645 7.1778V19.2529L26.7299 20.6997C27.4238 22.2085 29.0902 22.8084 30.452 22.0396L36.1421 18.8274C37.5039 18.0587 38.0454 16.2124 37.3515 14.7036L31.3597 1.67475C30.6658 0.165983 28.9994 -0.433915 27.6376 0.334839L23.1435 2.87184Z" fill="#2E6B5C"/>
<path d="M12.8664 19.5927V21.8005C12.8664 23.4938 14.1054 24.8665 15.6337 24.8665H22.0199C23.5483 24.8665 24.7873 23.4938 24.7873 21.8005V7.17782C24.7873 5.4845 23.5483 4.11178 22.0199 4.11178H17.9905C18.6163 5.3694 18.6864 6.93738 18.0537 8.31329L12.8664 19.5927Z" fill="#2E6B5C"/>
<path d="M6.29406 1.67474C6.98792 0.165974 8.65435 -0.433923 10.0161 0.334831L15.7063 3.54703C17.0681 4.31578 17.6095 6.16208 16.9157 7.67084L10.9238 20.6997C10.23 22.2085 8.56353 22.8084 7.20175 22.0396L1.51159 18.8274C0.149806 18.0587 -0.391652 16.2124 0.302213 14.7036L6.29406 1.67474Z" fill="#2E6B5C"/>
</g>
<defs>
<filter id="filter0_ii_15_12014" x="0" y="-10" width="37.6543" height="44.8665" filterUnits="userSpaceOnUse" color-interpolation-filters="sRGB">
<feFlood flood-opacity="0" result="BackgroundImageFix"/>
<feBlend mode="normal" in="SourceGraphic" in2="BackgroundImageFix" result="shape"/>
<feColorMatrix in="SourceAlpha" type="matrix" values="0 0 0 0 0 0 0 0 0 0 0 0 0 0 0 0 0 0 127 0" result="hardAlpha"/>
<feOffset dy="10"/>
<feGaussianBlur stdDeviation="5"/>
<feComposite in2="hardAlpha" operator="arithmetic" k2="-1" k3="1"/>
<feColorMatrix type="matrix" values="0 0 0 0 1 0 0 0 0 1 0 0 0 0 1 0 0 0 0.1 0"/>
<feBlend mode="normal" in2="shape" result="effect1_innerShadow_15_12014"/>
<feColorMatrix in="SourceAlpha" type="matrix" values="0 0 0 0 0 0 0 0 0 0 0 0 0 0 0 0 0 0 127 0" result="hardAlpha"/>
<feOffset dy="-10"/>
<feGaussianBlur stdDeviation="5"/>
<feComposite in2="hardAlpha" operator="arithmetic" k2="-1" k3="1"/>
<feColorMatrix type="matrix" values="0 0 0 0 0.2 0 0 0 0 0.2 0 0 0 0 0.2 0 0 0 0.1 0"/>
<feBlend mode="normal" in2="effect1_innerShadow_15_12014" result="effect2_innerShadow_15_12014"/>
</filter>
</defs>
</svg>
