<svg width="243" height="25" viewBox="0 0 243 25" fill="none" xmlns="http://www.w3.org/2000/svg">
<g filter="url(#filter0_ii_15_12003)">
<path d="M23.1435 2.87184C24.8306 3.41127 26.0645 5.13489 26.0645 7.1778V19.2529L26.7299 20.6997C27.4238 22.2085 29.0902 22.8084 30.452 22.0396L36.1421 18.8274C37.5039 18.0587 38.0454 16.2124 37.3515 14.7036L31.3597 1.67475C30.6658 0.165983 28.9994 -0.433915 27.6376 0.334839L23.1435 2.87184Z" fill="white"/>
<path d="M12.8664 19.5927V21.8005C12.8664 23.4938 14.1054 24.8665 15.6337 24.8665H22.0199C23.5483 24.8665 24.7873 23.4938 24.7873 21.8005V7.17782C24.7873 5.4845 23.5483 4.11178 22.0199 4.11178H17.9905C18.6163 5.3694 18.6864 6.93738 18.0537 8.31329L12.8664 19.5927Z" fill="white"/>
<path d="M6.29406 1.67474C6.98792 0.165974 8.65435 -0.433923 10.0161 0.334831L15.7063 3.54703C17.0681 4.31578 17.6095 6.16208 16.9157 7.67084L10.9238 20.6997C10.23 22.2085 8.56353 22.8084 7.20175 22.0396L1.51159 18.8274C0.149806 18.0587 -0.391652 16.2124 0.302213 14.7036L6.29406 1.67474Z" fill="white"/>
</g>
<path d="M77.0885 5.53766H71.2156L65.907 15.7427L60.5774 5.53766H54.6836V21.5188H59.2816V12.1812L64.3185 21.5188H67.4536L72.4905 12.2041V21.5188H77.0885V5.53766Z" fill="white"/>
<path d="M87.0753 21.7471C92.3004 21.7471 95.6026 19.738 95.6026 14.7382C95.6026 9.73841 92.3004 7.72935 87.0753 7.72935C81.8712 7.72935 78.5481 9.73841 78.5481 14.7382C78.5481 19.738 81.8712 21.7471 87.0753 21.7471ZM87.0753 17.8431C84.3165 17.8431 82.8535 17.1354 82.8535 14.7382C82.8535 12.3411 84.3165 11.6333 87.0753 11.6333C89.855 11.6333 91.3181 12.3411 91.3181 14.7382C91.3181 17.1354 89.855 17.8431 87.0753 17.8431Z" fill="white"/>
<path d="M107.903 7.95766L103.828 18.1628L99.7524 7.95766H95.029L100.776 21.5188H106.879L112.606 7.95766H107.903Z" fill="white"/>
<path d="M113.678 3.25464V6.77049H117.984V3.25464H113.678ZM113.678 7.95766V21.5188H117.984V7.95766H113.678Z" fill="white"/>
<path d="M127.696 18.0029C125.836 18.0029 124.185 17.4778 123.767 15.6514H136.369C136.369 9.60143 132.837 7.72935 127.905 7.72935C122.847 7.72935 119.378 9.73841 119.378 14.7382C119.378 19.738 122.91 21.7471 127.696 21.7471C132.566 21.7471 135.45 20.0577 136.16 16.5418H131.918C130.977 17.6605 129.849 18.0029 127.696 18.0029ZM127.905 11.1539C129.681 11.1539 131.207 11.4735 131.813 13.0488H123.934C124.519 11.4735 126.024 11.1539 127.905 11.1539Z" fill="white"/>
<path d="M137.287 16.7929C137.287 21.085 141.593 21.7471 146.337 21.7471C151.081 21.7471 154.3 21.085 154.3 17.1126C154.3 13.5282 151.102 13.2771 146.212 12.9575C142.512 12.6835 141.927 12.6378 141.927 11.9301C141.927 11.268 142.784 11.1539 145.752 11.1539C148.511 11.1539 149.597 11.268 149.597 12.2041H153.882C153.882 8.39143 150.601 7.72935 145.961 7.72935C141.425 7.72935 137.622 8.39143 137.622 12.0899C137.622 15.446 140.213 15.9254 145.794 16.2222C149.472 16.4505 150.015 16.4505 150.015 17.2952C150.015 18.1171 149.451 18.3226 146.128 18.3226C142.617 18.3226 141.593 17.8888 141.593 16.7929H137.287Z" fill="white"/>
<path d="M171.844 12.7063C172.554 11.816 172.993 10.7429 172.993 9.66992C172.993 7.27275 171.969 5.53766 168.646 5.53766H155.834V21.5188H169.21C172.534 21.5188 173.976 19.4869 173.976 16.8158C173.976 15.035 173.119 13.6195 171.844 12.7063ZM160.432 8.96218H166.828C167.622 8.96218 168.395 8.96219 168.395 10.2178C168.395 11.4735 167.622 11.4735 166.828 11.4735H160.432V8.96218ZM167.81 17.7746H160.432V15.2405H167.81C168.604 15.2405 169.378 15.2405 169.378 16.4961C169.378 17.7746 168.604 17.7746 167.81 17.7746Z" fill="white"/>
<path d="M183.491 21.7471C188.716 21.7471 192.018 19.738 192.018 14.7382C192.018 9.73841 188.716 7.72935 183.491 7.72935C178.287 7.72935 174.964 9.73841 174.964 14.7382C174.964 19.738 178.287 21.7471 183.491 21.7471ZM183.491 17.8431C180.732 17.8431 179.269 17.1354 179.269 14.7382C179.269 12.3411 180.732 11.6333 183.491 11.6333C186.271 11.6333 187.734 12.3411 187.734 14.7382C187.734 17.1354 186.271 17.8431 183.491 17.8431Z" fill="white"/>
<path d="M201.422 7.72935C198.998 7.72935 196.385 8.23162 193.877 9.122L195.34 12.478C197.764 11.7931 199.645 11.6333 201.255 11.6333C202.927 11.6333 205.247 11.7703 205.247 13.8707C203.846 13.3456 202.216 13.026 200.272 13.026C196.51 13.026 192.853 14.0533 192.853 17.592C192.853 20.5828 195.194 21.7471 198.35 21.7471C200.879 21.7471 203.178 21.1992 205.247 19.8522V21.5188H209.531V14.7382C209.489 9.5786 206.563 7.72935 201.422 7.72935ZM205.247 17.2039C203.679 17.9116 201.422 18.4824 199.625 18.4824C198.036 18.4824 197.158 18.3682 197.158 17.2952C197.158 16.1537 198.454 15.8112 200.962 15.8112C202.822 15.8112 204.202 16.0395 205.247 16.382V17.2039Z" fill="white"/>
<path d="M220.939 7.72935C218.786 7.72935 216.822 8.43709 215.359 10.2407V7.95766H211.053V21.5188H215.359V13.8022C217.156 11.9986 219.288 11.6333 221.19 11.6333C222.151 11.6333 223.092 11.7703 224.262 12.0899V8.18596C223.426 7.95766 222.402 7.72935 220.939 7.72935Z" fill="white"/>
<path d="M237.707 3.25464V9.92105C236.39 8.43709 234.342 7.72935 232.043 7.72935C228.448 7.72935 224.958 9.39596 224.958 14.7382C224.958 20.0577 228.448 21.7471 232.043 21.7471C234.342 21.7471 236.39 21.0394 237.707 19.5326V21.5188H242.012V3.25464H237.707ZM233.485 17.8431C230.768 17.8431 229.242 17.0669 229.242 14.7382C229.242 12.4095 230.768 11.6333 233.485 11.6333C236.181 11.6333 237.707 12.4095 237.707 14.7382C237.707 17.0669 236.181 17.8431 233.485 17.8431Z" fill="white"/>
<defs>
<filter id="filter0_ii_15_12003" x="0" y="-10" width="37.6543" height="44.8665" filterUnits="userSpaceOnUse" color-interpolation-filters="sRGB">
<feFlood flood-opacity="0" result="BackgroundImageFix"/>
<feBlend mode="normal" in="SourceGraphic" in2="BackgroundImageFix" result="shape"/>
<feColorMatrix in="SourceAlpha" type="matrix" values="0 0 0 0 0 0 0 0 0 0 0 0 0 0 0 0 0 0 127 0" result="hardAlpha"/>
<feOffset dy="10"/>
<feGaussianBlur stdDeviation="5"/>
<feComposite in2="hardAlpha" operator="arithmetic" k2="-1" k3="1"/>
<feColorMatrix type="matrix" values="0 0 0 0 1 0 0 0 0 1 0 0 0 0 1 0 0 0 0.1 0"/>
<feBlend mode="normal" in2="shape" result="effect1_innerShadow_15_12003"/>
<feColorMatrix in="SourceAlpha" type="matrix" values="0 0 0 0 0 0 0 0 0 0 0 0 0 0 0 0 0 0 127 0" result="hardAlpha"/>
<feOffset dy="-10"/>
<feGaussianBlur stdDeviation="5"/>
<feComposite in2="hardAlpha" operator="arithmetic" k2="-1" k3="1"/>
<feColorMatrix type="matrix" values="0 0 0 0 0.2 0 0 0 0 0.2 0 0 0 0 0.2 0 0 0 0.1 0"/>
<feBlend mode="normal" in2="effect1_innerShadow_15_12003" result="effect2_innerShadow_15_12003"/>
</filter>
</defs>
</svg>
