<svg width="16" height="16" viewBox="0 0 16 16" fill="none" xmlns="http://www.w3.org/2000/svg">
<path fill-rule="evenodd" clip-rule="evenodd" d="M10.6583 11.8262C9.53949 12.6958 8.13366 13.2137 6.60687 13.2137C2.958 13.2137 0 10.2557 0 6.60687C0 2.958 2.958 0 6.60687 0C10.2557 0 13.2137 2.958 13.2137 6.60687C13.2137 8.13363 12.6959 9.53943 11.8262 10.6582L16.0001 14.8321L14.8321 16L10.6583 11.8262ZM11.562 6.60687C11.562 9.34352 9.34352 11.562 6.60687 11.562C3.87021 11.562 1.65172 9.34352 1.65172 6.60687C1.65172 3.87021 3.87021 1.65172 6.60687 1.65172C9.34352 1.65172 11.562 3.87021 11.562 6.60687Z" fill="#828282"/>
</svg>
