<svg width="18" height="18" viewBox="0 0 18 18" fill="none" xmlns="http://www.w3.org/2000/svg">
<path d="M17.207 4.5432L14.875 6.8752L11.125 3.1252L13.457 0.793201C13.5498 0.700255 13.66 0.626518 13.7813 0.576207C13.9026 0.525896 14.0327 0.5 14.164 0.5C14.2953 0.5 14.4254 0.525896 14.5467 0.576207C14.668 0.626518 14.7782 0.700255 14.871 0.793201L17.207 3.1292C17.2999 3.22199 17.3737 3.33219 17.424 3.45351C17.4743 3.57482 17.5002 3.70487 17.5002 3.8362C17.5002 3.96753 17.4743 4.09758 17.424 4.21889C17.3737 4.34021 17.2999 4.45041 17.207 4.5432ZM0.5 13.7492L10.565 3.6852L14.315 7.4352L4.25 17.4992H0.501L0.5 13.7492Z" fill="white"/>
</svg>
